<svg width="24" height="24" viewBox="0 0 24 24" fill="none" xmlns="http://www.w3.org/2000/svg">
<path fill-rule="evenodd" clip-rule="evenodd" d="M4.65 16.3201C4.71986 16.2208 4.81045 16.1401 4.91459 16.0846C5.01873 16.029 5.13357 16.0001 5.25 16.0001H9C9.19891 16.0001 9.38968 16.0844 9.53033 16.2344C9.67098 16.3845 9.75 16.5879 9.75 16.8001C9.75 17.0123 9.67098 17.2158 9.53033 17.3658C9.38968 17.5158 9.19891 17.6001 9 17.6001H5.625L2.25 22.4001H21.75L18.375 17.6001H15C14.8011 17.6001 14.6103 17.5158 14.4697 17.3658C14.329 17.2158 14.25 17.0123 14.25 16.8001C14.25 16.5879 14.329 16.3845 14.4697 16.2344C14.6103 16.0844 14.8011 16.0001 15 16.0001H18.75C18.8664 16.0001 18.9813 16.029 19.0854 16.0846C19.1896 16.1401 19.2801 16.2208 19.35 16.3201L23.85 22.7201C23.9336 22.839 23.9845 22.9803 23.997 23.1283C24.0095 23.2762 23.9831 23.425 23.9208 23.5579C23.8585 23.6908 23.7628 23.8025 23.6443 23.8806C23.5258 23.9588 23.3893 24.0001 23.25 24.0001H0.75C0.610716 24.0001 0.474184 23.9588 0.355702 23.8806C0.23722 23.8025 0.14147 23.6908 0.07918 23.5579C0.0168903 23.425 -0.00947761 23.2762 0.00303087 23.1283C0.0155393 22.9803 0.06643 22.839 0.15 22.7201L4.65 16.3201Z" fill="black"/>
<path fill-rule="evenodd" clip-rule="evenodd" d="M12 1.49961C11.4091 1.49961 10.8239 1.616 10.2779 1.84216C9.73196 2.06831 9.23588 2.39979 8.81802 2.81766C8.40016 3.23553 8.06869 3.73162 7.84254 4.2776C7.6164 4.82358 7.5 5.40876 7.5 5.99972C7.5 6.59069 7.6164 7.17587 7.84254 7.72185C8.06869 8.26783 8.40016 8.76392 8.81802 9.18179C9.23588 9.59966 9.73196 9.93114 10.2779 10.1573C10.8239 10.3834 11.4091 10.4998 12 10.4998C13.1935 10.4998 14.3381 10.0257 15.182 9.18179C16.0259 8.33785 16.5 7.19323 16.5 5.99972C16.5 4.80622 16.0259 3.6616 15.182 2.81766C14.3381 1.97372 13.1935 1.49961 12 1.49961ZM6 5.99972C6.00011 4.84503 6.33339 3.7149 6.95984 2.74493C7.5863 1.77495 8.47932 1.00635 9.53176 0.53134C10.5842 0.0563298 11.7513 -0.104908 12.8931 0.0669728C14.0349 0.238854 15.1029 0.736553 15.9688 1.50035C16.8348 2.26415 17.462 3.2616 17.7751 4.37301C18.0883 5.48443 18.0741 6.6626 17.7343 7.76615C17.3945 8.8697 16.7434 9.85176 15.8593 10.5945C14.9752 11.3372 13.8956 11.809 12.75 11.9534V20.2501C12.75 20.449 12.671 20.6398 12.5303 20.7804C12.3897 20.9211 12.1989 21.0001 12 21.0001C11.8011 21.0001 11.6103 20.9211 11.4697 20.7804C11.329 20.6398 11.25 20.449 11.25 20.2501V11.9549C9.79945 11.7721 8.46553 11.066 7.49882 9.96918C6.53211 8.87235 5.99913 7.46028 6 5.99822V5.99972Z" fill="black"/>
</svg>
