<svg width="40" height="39" viewBox="0 0 40 39" fill="none" xmlns="http://www.w3.org/2000/svg">
<path d="M35 2.5C35.663 2.5 36.2989 2.76339 36.7678 3.23223C37.2366 3.70107 37.5 4.33696 37.5 5V25C37.5 25.663 37.2366 26.2989 36.7678 26.7678C36.2989 27.2366 35.663 27.5 35 27.5H11.035C9.70903 27.5003 8.43746 28.0273 7.5 28.965L2.5 33.965V5C2.5 4.33696 2.76339 3.70107 3.23223 3.23223C3.70107 2.76339 4.33696 2.5 5 2.5H35ZM5 0C3.67392 0 2.40215 0.526784 1.46447 1.46447C0.526784 2.40215 0 3.67392 0 5L0 36.9825C5.25372e-05 37.2298 0.0734815 37.4716 0.210993 37.6772C0.348505 37.8828 0.543917 38.043 0.772498 38.1374C1.00108 38.2319 1.25255 38.2565 1.49509 38.208C1.73763 38.1595 1.96033 38.0401 2.135 37.865L9.2675 30.7325C9.73623 30.2636 10.372 30.0001 11.035 30H35C36.3261 30 37.5979 29.4732 38.5355 28.5355C39.4732 27.5979 40 26.3261 40 25V5C40 3.67392 39.4732 2.40215 38.5355 1.46447C37.5979 0.526784 36.3261 0 35 0L5 0Z" fill="white"/>
</svg>
