<svg width="40" height="40" viewBox="0 0 40 40" fill="none" xmlns="http://www.w3.org/2000/svg">
<path d="M0 20C0 14.6957 2.10714 9.60859 5.85786 5.85786C9.60859 2.10714 14.6957 0 20 0C25.3043 0 30.3914 2.10714 34.1421 5.85786C37.8929 9.60859 40 14.6957 40 20C40 25.3043 37.8929 30.3914 34.1421 34.1421C30.3914 37.8929 25.3043 40 20 40C14.6957 40 9.60859 37.8929 5.85786 34.1421C2.10714 30.3914 0 25.3043 0 20ZM18.75 2.6925C17.075 3.2025 15.4125 4.7425 14.0325 7.33C13.675 8 13.3425 8.73 13.045 9.51C14.8075 9.9025 16.725 10.1525 18.75 10.2275V2.6925ZM10.6225 8.8475C10.9775 7.8875 11.3825 6.9875 11.825 6.1525C12.2573 5.33514 12.7565 4.55497 13.3175 3.82C11.1892 4.702 9.25563 5.99499 7.6275 7.625C8.5325 8.085 9.535 8.4975 10.6225 8.85V8.8475ZM8.7725 18.75C8.8625 16.075 9.2425 13.5325 9.8625 11.23C8.50925 10.7972 7.19939 10.239 5.95 9.5625C3.95886 12.2359 2.77705 15.4247 2.545 18.75H8.77H8.7725ZM12.2725 11.8975C11.6831 14.1369 11.3477 16.4355 11.2725 18.75H18.75V12.7275C16.475 12.6525 14.2925 12.365 12.2725 11.8975ZM21.25 12.725V18.75H28.725C28.6507 16.4356 28.3161 14.137 27.7275 11.8975C25.7075 12.365 23.525 12.65 21.25 12.7275V12.725ZM11.275 21.25C11.3625 23.7175 11.715 26.035 12.2725 28.1025C14.4001 27.6197 16.5693 27.3426 18.75 27.275V21.25H11.275ZM21.25 21.25V27.2725C23.525 27.3475 25.7075 27.635 27.7275 28.1025C28.285 26.035 28.6375 23.7175 28.7275 21.25H21.25ZM13.045 30.49C13.345 31.27 13.675 32 14.0325 32.67C15.4125 35.2575 17.0775 36.795 18.75 37.3075V29.775C16.725 29.85 14.8075 30.1 13.045 30.4925V30.49ZM13.32 36.18C12.7581 35.4451 12.258 34.665 11.825 33.8475C11.3646 32.9761 10.9628 32.0749 10.6225 31.15C9.59408 31.4805 8.59276 31.8901 7.6275 32.375C9.25563 34.005 11.1892 35.298 13.3175 36.18H13.32ZM9.8625 28.77C9.21344 26.3131 8.8469 23.7901 8.77 21.25H2.545C2.77691 24.5753 3.95874 27.7642 5.95 30.4375C7.125 29.7925 8.4375 29.2325 9.8625 28.77ZM26.6825 36.18C28.8098 35.2985 30.7424 34.0064 32.37 32.3775C31.4056 31.8926 30.4051 31.4831 29.3775 31.1525C29.0371 32.0766 28.6353 32.9769 28.175 33.8475C27.7429 34.6649 27.2436 35.4451 26.6825 36.18ZM21.25 29.7725V37.3075C22.925 36.7975 24.5875 35.2575 25.9675 32.67C26.325 32 26.6575 31.27 26.955 30.49C25.079 30.0787 23.1695 29.8393 21.25 29.775V29.7725ZM30.1375 28.77C31.5625 29.2325 32.875 29.7925 34.05 30.4375C36.0413 27.7642 37.2231 24.5753 37.455 21.25H31.23C31.1531 23.7901 30.7866 26.3131 30.1375 28.77ZM37.455 18.75C37.2231 15.4247 36.0413 12.2358 34.05 9.5625C32.875 10.2075 31.5625 10.7675 30.1375 11.23C30.7575 13.53 31.1375 16.075 31.23 18.75H37.455ZM28.175 6.1525C28.6175 6.9875 29.0225 7.8875 29.38 8.8475C30.4068 8.51686 31.4064 8.10731 32.37 7.6225C30.7422 5.99456 28.8095 4.7033 26.6825 3.8225C27.2275 4.53 27.7275 5.315 28.175 6.1525ZM26.955 9.51C26.671 8.76371 26.3412 8.03567 25.9675 7.33C24.5875 4.7425 22.925 3.205 21.25 2.6925V10.225C23.275 10.15 25.1925 9.9 26.955 9.5075V9.51Z" fill="white"/>
</svg>
