<svg width="28" height="41" viewBox="0 0 28 41" fill="none" xmlns="http://www.w3.org/2000/svg">
<path d="M22.1275 0.170006C22.3722 0.311852 22.5615 0.532481 22.6646 0.79585C22.7677 1.05922 22.7784 1.34976 22.695 1.62001L18.1925 16.25H26.5C26.7441 16.2499 26.983 16.3213 27.187 16.4554C27.391 16.5895 27.5513 16.7803 27.6481 17.0045C27.7449 17.2286 27.7739 17.4762 27.7316 17.7166C27.6893 17.9571 27.5775 18.1799 27.41 18.3575L7.41001 39.6075C7.21649 39.8133 6.95898 39.9475 6.67944 39.9881C6.39991 40.0288 6.11483 39.9736 5.87069 39.8316C5.62654 39.6895 5.43771 39.4689 5.33499 39.2057C5.23226 38.9426 5.2217 38.6524 5.30501 38.3825L9.80751 23.75H1.50001C1.25587 23.7501 1.01705 23.6787 0.813025 23.5446C0.609 23.4105 0.448703 23.2197 0.351923 22.9955C0.255143 22.7714 0.226117 22.5238 0.268427 22.2834C0.310737 22.0429 0.422532 21.8201 0.59001 21.6425L20.59 0.392506C20.7833 0.187004 21.0404 0.0529272 21.3196 0.0120771C21.5987 -0.028773 21.8834 0.0260054 22.1275 0.167506V0.170006ZM4.39251 21.25H11.5C11.6956 21.25 11.8885 21.2958 12.0632 21.3839C12.2378 21.472 12.3894 21.5999 12.5056 21.7572C12.6219 21.9146 12.6996 22.097 12.7325 22.2898C12.7653 22.4827 12.7525 22.6805 12.695 22.8675L9.27501 33.975L23.605 18.75H16.5C16.3044 18.75 16.1115 18.7042 15.9368 18.6161C15.7622 18.528 15.6106 18.4001 15.4944 18.2428C15.3781 18.0854 15.3005 17.903 15.2676 17.7102C15.2347 17.5173 15.2475 17.3195 15.305 17.1325L18.725 6.02501L4.39251 21.25Z" fill="white"/>
</svg>
