<svg id="PAGES" xmlns="http://www.w3.org/2000/svg" viewBox="0 0 100 100"><defs><style>.cls-1{fill:#6d6e71;}</style></defs><title>Metallist icon set</title><path class="cls-1" d="M42.61,96.39V89.32l-.09,0A26.77,26.77,0,0,1,37,87l-.09,0-5,5L21.47,81.51l5-5,0-.09a26.79,26.79,0,0,1-2.28-5.51l0-.09H17V56h7.07l0-.09a26.7,26.7,0,0,1,2.28-5.51l0-.09-5-5L31.92,34.9l5,5,.09,0a26.83,26.83,0,0,1,5.51-2.27l.09,0V30.41l-.07,0A13.3,13.3,0,0,1,35.09,18.3,14.93,14.93,0,0,1,45,4.26l1.83-.65v12.2l3.1,1,3.18-1V3.61L55,4.26a14.93,14.93,0,0,1,9.94,14,13.3,13.3,0,0,1-7.45,12.07l-.07,0v7.15l.09,0A26.73,26.73,0,0,1,63,39.85l.09,0,5-5L78.53,45.35l-5,5,0,.09a26.66,26.66,0,0,1,2.28,5.51l0,.09H83V70.82H75.89l0,.09a26.7,26.7,0,0,1-2.28,5.51l0,.09,5,5L68.08,92l-5-5L63,87a26.83,26.83,0,0,1-5.51,2.28l-.09,0v7.07Zm2.75-2.75h9.29V87.18l1.05-.26a24,24,0,0,0,6.89-2.86l.92-.57,4.57,4.58,6.57-6.57-4.58-4.57.57-.92a24,24,0,0,0,2.86-6.89l.25-1.05h6.47V58.79H73.75l-.26-1.05a24,24,0,0,0-2.86-6.89l-.57-.92,4.58-4.57-6.57-6.57L63.5,43.36l-.92-.57a24.1,24.1,0,0,0-5-2.32l-.17-.06v6.69l.08,0A17.71,17.71,0,0,1,67.92,63.43a17.92,17.92,0,1,1-35.84,0A17.72,17.72,0,0,1,42.53,47.15l.08,0V40.42l-.17.06a23.94,23.94,0,0,0-5,2.32l-.92.57-4.57-4.58-6.57,6.57,4.58,4.57-.57.92a24,24,0,0,0-2.86,6.89l-.25,1.05H19.79v9.28h6.47l.26,1.05A24,24,0,0,0,29.36,76l.57.92-4.58,4.57,6.57,6.57,4.57-4.58.92.57a23.93,23.93,0,0,0,6.89,2.86l1.05.25Zm0-15.77.09,0a15.15,15.15,0,0,0,9.1,0l.09,0V56h2.75V76.66l.2-.11a15.23,15.23,0,0,0,7.59-13.12,15,15,0,0,0-7.59-13.15l-.19-.11v2.6H54.64V28.69l.79-.37c4.41-2.09,6.73-5.55,6.73-10A12.2,12.2,0,0,0,56.08,7.78l-.2-.11V17.79l-5.93,2-5.85-2V7.67l-.2.11A12.19,12.19,0,0,0,37.84,18.3c0,4.47,2.33,7.93,6.74,10l.79.37ZM42.41,50.28a15,15,0,0,0-7.59,13.15,15.23,15.23,0,0,0,7.59,13.12l.2.11V50.17Z"/><path class="cls-1" d="M7.88,85.86a4.37,4.37,0,0,1-1.46-8.5l.09,0V22.82a4.39,4.39,0,0,1,4.38-4.38h12.4l0-.09a4.38,4.38,0,1,1,0,2.92l0-.09H10.89a1.64,1.64,0,0,0-1.63,1.63V77.34l.09,0a4.37,4.37,0,0,1-1.46,8.5Zm0-6a1.63,1.63,0,1,0,1.63,1.63A1.64,1.64,0,0,0,7.88,79.85ZM27.44,18.17a1.63,1.63,0,1,0,1.63,1.63A1.64,1.64,0,0,0,27.44,18.17Z"/><path class="cls-1" d="M92.12,85.86a4.37,4.37,0,0,1-1.46-8.5l.09,0V22.82a1.64,1.64,0,0,0-1.63-1.63H76.71l0,.09a4.38,4.38,0,1,1,0-2.92l0,.09h12.4a4.39,4.39,0,0,1,4.38,4.38V77.34l.09,0a4.37,4.37,0,0,1-1.46,8.5Zm0-6a1.63,1.63,0,1,0,1.63,1.63A1.64,1.64,0,0,0,92.12,79.85ZM72.56,18.17a1.63,1.63,0,1,0,1.63,1.63A1.64,1.64,0,0,0,72.56,18.17Z"/></svg>